<svg xmlns="http://www.w3.org/2000/svg" viewBox="0 0 1440 320">
  <path fill="#00cba9" fill-opacity="1" d="M0,96L0,64L110.8,64L110.8,128L221.5,128L221.5,96L332.3,96L332.3,192L443.1,192L443.1,224L553.8,224L553.8,64L664.6,64L664.6,96L775.4,96L775.4,32L886.2,32L886.2,96L996.9,96L996.9,288L1107.7,288L1107.7,0L1218.5,0L1218.5,192L1329.2,192L1329.2,160L1440,160L1440,320L1329.2,320L1329.2,320L1218.5,320L1218.5,320L1107.7,320L1107.7,320L996.9,320L996.9,320L886.2,320L886.2,320L775.4,320L775.4,320L664.6,320L664.6,320L553.8,320L553.8,320L443.1,320L443.1,320L332.3,320L332.3,320L221.5,320L221.5,320L110.8,320L110.8,320L0,320L0,320Z"></path>
</svg>